<?xml version="1.0" encoding="utf-8"?>
<!-- Generator: Adobe Illustrator 24.2.1, SVG Export Plug-In . SVG Version: 6.00 Build 0)  -->
<svg version="1.1" id="SvgjsSvg1036" xmlns:svgjs="http://svgjs.com/svgjs"
	 xmlns="http://www.w3.org/2000/svg" xmlns:xlink="http://www.w3.org/1999/xlink" x="0px" y="0px" viewBox="0 0 288 288"
	 style="enable-background:new 0 0 288 288;" xml:space="preserve">
<style type="text/css">
	.st0{fill:#FFFFFF;}
</style>
<g id="SvgjsG1038">
	<path class="st0" d="M238.2,159.9v78.5c0,2.8-1,5.3-3.1,7.4c-2.1,2.1-4.5,3.1-7.4,3.1h-62.8v-62.8h-41.8v62.8H60.3
		c-2.8,0-5.3-1-7.4-3.1c-2.1-2.1-3.1-4.5-3.1-7.4v-78.5c0-0.1,0-0.3,0.1-0.5c0.1-0.2,0.1-0.4,0.1-0.5l94-77.5l94,77.5
		C238.1,159.2,238.2,159.5,238.2,159.9z M274.6,148.7l-10.1,12.1c-0.9,1-2,1.6-3.4,1.8h-0.5c-1.4,0-2.6-0.4-3.4-1.1L144,67.1
		L30.9,161.4c-1.3,0.9-2.6,1.3-3.9,1.1c-1.4-0.2-2.6-0.8-3.4-1.8l-10.1-12.1c-0.9-1.1-1.3-2.4-1.1-3.8c0.1-1.5,0.7-2.6,1.8-3.5
		l117.5-97.9c3.5-2.8,7.6-4.3,12.4-4.3s8.9,1.4,12.4,4.3l39.9,33.3V44.9c0-1.5,0.5-2.8,1.5-3.8s2.2-1.5,3.8-1.5h31.4
		c1.5,0,2.8,0.5,3.8,1.5c1,1,1.5,2.2,1.5,3.8v66.7l35.8,29.8c1.1,0.9,1.7,2,1.8,3.5C275.9,146.3,275.5,147.6,274.6,148.7z"/>
</g>
</svg>
