<?xml version="1.0" encoding="utf-8"?>
<!-- Generator: Adobe Illustrator 24.2.1, SVG Export Plug-In . SVG Version: 6.00 Build 0)  -->
<svg version="1.1" id="Layer_1" xmlns="http://www.w3.org/2000/svg" xmlns:xlink="http://www.w3.org/1999/xlink" x="0px" y="0px"
	 viewBox="0 0 344.9 400.8" style="enable-background:new 0 0 344.9 400.8;" xml:space="preserve">
<style type="text/css">
	.st0{fill:#00ADB5;}
	.st1{fill:#E0E0E0;}
</style>
<g>
	<path class="st0" d="M296.8,107.7c0-21.2-0.3-40.4,0.1-59.7c0.5-27.1,20-46.8,47.6-48c0.1,2.7,0.4,5.5,0.4,8.3
		c0,74.9,0.1,149.9,0,224.8c-0.1,81.3-66.9,156.6-147.4,166.3c-94.6,11.4-174.1-45.5-194-138.9C-16.1,168.7,50.3,72.2,142.7,58
		C201.3,48.9,248.5,63.8,296.8,107.7z M296.8,228.7c0.2-69-55.4-125-124.4-125.2c-67.4-0.2-123.3,55.7-123.7,123.9
		c-0.4,69.2,54.9,125.3,123.9,125.4C241,352.9,296.6,297.4,296.8,228.7z"/>
	<path class="st1" d="M262,234.7c-46.5,0-92.4,0-138.5,0c2.7,20.5,16.7,36.8,35.5,42c20,5.5,41.1-1.1,53.1-18
		c4-5.6,8.1-7.1,14.3-6.9c10.6,0.4,21.2,0.1,31.9,0.1c-4.3,39.5-51.2,71.3-98.3,65.6c-46.8-5.6-83.1-49.9-76.7-102.1
		c5.6-45.3,50.9-82.4,96.4-77.6C229.8,143.2,267.2,186.5,262,234.7z M132.8,199.3c26.6,0,53.2,0,80.3,0
		C192.7,169.3,147.6,173,132.8,199.3z"/>
</g>
</svg>
